<mxfile host="app.diagrams.net" agent="Mozilla/5.0 (Macintosh; Intel Mac OS X 10_15_7) AppleWebKit/537.36 (KHTML, like Gecko) Chrome/129.0.0.0 Safari/537.36 Edg/129.0.0.0" version="24.8.0">
  <diagram name="第 1 页" id="c-6Z-fvDXJ6G98l71IaQ">
    <mxGraphModel dx="1386" dy="704" grid="1" gridSize="10" guides="1" tooltips="1" connect="1" arrows="1" fold="1" page="1" pageScale="1" pageWidth="827" pageHeight="1169" math="0" shadow="0">
      <root>
        <mxCell id="0" />
        <mxCell id="1" parent="0" />
        <mxCell id="Rcv9ff5-Xtqw_4qlxiXb-2" value="" style="rounded=0;whiteSpace=wrap;html=1;fillColor=#ffe6cc;strokeColor=#d79b00;" vertex="1" parent="1">
          <mxGeometry x="350" y="330" width="250" height="230" as="geometry" />
        </mxCell>
        <mxCell id="Rcv9ff5-Xtqw_4qlxiXb-3" value="埋点协议管理" style="rounded=1;whiteSpace=wrap;html=1;" vertex="1" parent="1">
          <mxGeometry x="361" y="380" width="105" height="60" as="geometry" />
        </mxCell>
        <mxCell id="Rcv9ff5-Xtqw_4qlxiXb-7" value="" style="rounded=0;whiteSpace=wrap;html=1;fillColor=#647687;fontColor=#ffffff;strokeColor=#314354;" vertex="1" parent="1">
          <mxGeometry x="160" y="590" width="290" height="80" as="geometry" />
        </mxCell>
        <mxCell id="Rcv9ff5-Xtqw_4qlxiXb-11" value="" style="endArrow=none;dashed=1;html=1;dashPattern=1 3;strokeWidth=2;rounded=0;" edge="1" parent="1">
          <mxGeometry width="50" height="50" relative="1" as="geometry">
            <mxPoint x="50" y="210" as="sourcePoint" />
            <mxPoint x="860" y="210" as="targetPoint" />
          </mxGeometry>
        </mxCell>
        <mxCell id="Rcv9ff5-Xtqw_4qlxiXb-14" value="" style="rounded=0;whiteSpace=wrap;html=1;fillColor=#dae8fc;strokeColor=#6c8ebf;" vertex="1" parent="1">
          <mxGeometry x="160" y="60" width="290" height="130" as="geometry" />
        </mxCell>
        <mxCell id="Rcv9ff5-Xtqw_4qlxiXb-15" value="应用1" style="rounded=1;whiteSpace=wrap;html=1;" vertex="1" parent="1">
          <mxGeometry x="180" y="90" width="120" height="40" as="geometry" />
        </mxCell>
        <mxCell id="Rcv9ff5-Xtqw_4qlxiXb-16" value="车端" style="text;html=1;align=center;verticalAlign=middle;whiteSpace=wrap;rounded=0;" vertex="1" parent="1">
          <mxGeometry x="150" y="60" width="70" height="30" as="geometry" />
        </mxCell>
        <mxCell id="Rcv9ff5-Xtqw_4qlxiXb-17" value="应用2...." style="rounded=1;whiteSpace=wrap;html=1;" vertex="1" parent="1">
          <mxGeometry x="310" y="90" width="120" height="40" as="geometry" />
        </mxCell>
        <mxCell id="Rcv9ff5-Xtqw_4qlxiXb-20" value="数据中心SDK" style="rounded=0;whiteSpace=wrap;html=1;" vertex="1" parent="1">
          <mxGeometry x="182.5" y="140" width="247.5" height="40" as="geometry" />
        </mxCell>
        <mxCell id="Rcv9ff5-Xtqw_4qlxiXb-21" value="API网关（Ngnix）" style="rounded=0;whiteSpace=wrap;html=1;fillColor=#e1d5e7;strokeColor=#9673a6;" vertex="1" parent="1">
          <mxGeometry x="160" y="230" width="620" height="60" as="geometry" />
        </mxCell>
        <mxCell id="Rcv9ff5-Xtqw_4qlxiXb-22" value="" style="rounded=0;whiteSpace=wrap;html=1;fillColor=#d5e8d4;strokeColor=#82b366;" vertex="1" parent="1">
          <mxGeometry x="160" y="330" width="160" height="230" as="geometry" />
        </mxCell>
        <mxCell id="Rcv9ff5-Xtqw_4qlxiXb-24" value="Kafka消息队列" style="rounded=0;whiteSpace=wrap;html=1;" vertex="1" parent="1">
          <mxGeometry x="181.24" y="430" width="118.76" height="50" as="geometry" />
        </mxCell>
        <mxCell id="Rcv9ff5-Xtqw_4qlxiXb-27" value="" style="rounded=0;whiteSpace=wrap;html=1;fillColor=#dae8fc;strokeColor=#6c8ebf;" vertex="1" parent="1">
          <mxGeometry x="485" y="60" width="290" height="130" as="geometry" />
        </mxCell>
        <mxCell id="Rcv9ff5-Xtqw_4qlxiXb-28" value="GET请求" style="rounded=1;whiteSpace=wrap;html=1;" vertex="1" parent="1">
          <mxGeometry x="500" y="110" width="120" height="40" as="geometry" />
        </mxCell>
        <mxCell id="Rcv9ff5-Xtqw_4qlxiXb-29" value="WEB端" style="text;html=1;align=center;verticalAlign=middle;whiteSpace=wrap;rounded=0;" vertex="1" parent="1">
          <mxGeometry x="485" y="60" width="70" height="30" as="geometry" />
        </mxCell>
        <mxCell id="Rcv9ff5-Xtqw_4qlxiXb-30" value="POST请求" style="rounded=1;whiteSpace=wrap;html=1;" vertex="1" parent="1">
          <mxGeometry x="635" y="110" width="120" height="40" as="geometry" />
        </mxCell>
        <mxCell id="Rcv9ff5-Xtqw_4qlxiXb-32" value="用户端" style="text;html=1;align=center;verticalAlign=middle;whiteSpace=wrap;rounded=0;fontSize=30;" vertex="1" parent="1">
          <mxGeometry x="50" y="90" width="100" height="70" as="geometry" />
        </mxCell>
        <mxCell id="Rcv9ff5-Xtqw_4qlxiXb-33" value="采集服务" style="text;html=1;align=center;verticalAlign=middle;whiteSpace=wrap;rounded=0;" vertex="1" parent="1">
          <mxGeometry x="160" y="330" width="60" height="30" as="geometry" />
        </mxCell>
        <mxCell id="Rcv9ff5-Xtqw_4qlxiXb-34" value="Filebeat采集" style="rounded=0;whiteSpace=wrap;html=1;" vertex="1" parent="1">
          <mxGeometry x="180" y="370" width="120" height="50" as="geometry" />
        </mxCell>
        <mxCell id="Rcv9ff5-Xtqw_4qlxiXb-35" value="ElasticSearch" style="rounded=0;whiteSpace=wrap;html=1;" vertex="1" parent="1">
          <mxGeometry x="180" y="490" width="120" height="50" as="geometry" />
        </mxCell>
        <mxCell id="Rcv9ff5-Xtqw_4qlxiXb-36" value="元数据管理服务" style="text;html=1;align=center;verticalAlign=middle;whiteSpace=wrap;rounded=0;" vertex="1" parent="1">
          <mxGeometry x="350" y="330" width="90" height="30" as="geometry" />
        </mxCell>
        <mxCell id="Rcv9ff5-Xtqw_4qlxiXb-38" value="埋点应用管理" style="rounded=1;whiteSpace=wrap;html=1;" vertex="1" parent="1">
          <mxGeometry x="485" y="380" width="105" height="60" as="geometry" />
        </mxCell>
        <mxCell id="Rcv9ff5-Xtqw_4qlxiXb-39" value="采集配置管理" style="rounded=1;whiteSpace=wrap;html=1;" vertex="1" parent="1">
          <mxGeometry x="361" y="470" width="105" height="60" as="geometry" />
        </mxCell>
        <mxCell id="Rcv9ff5-Xtqw_4qlxiXb-40" value="埋点需求管理" style="rounded=1;whiteSpace=wrap;html=1;" vertex="1" parent="1">
          <mxGeometry x="485" y="470" width="105" height="60" as="geometry" />
        </mxCell>
        <mxCell id="Rcv9ff5-Xtqw_4qlxiXb-41" value="" style="rounded=0;whiteSpace=wrap;html=1;fillColor=#fff2cc;strokeColor=#d6b656;" vertex="1" parent="1">
          <mxGeometry x="620" y="330" width="160" height="230" as="geometry" />
        </mxCell>
        <mxCell id="Rcv9ff5-Xtqw_4qlxiXb-42" value="测试验证服务" style="text;html=1;align=center;verticalAlign=middle;whiteSpace=wrap;rounded=0;" vertex="1" parent="1">
          <mxGeometry x="620" y="330" width="80" height="30" as="geometry" />
        </mxCell>
        <mxCell id="Rcv9ff5-Xtqw_4qlxiXb-43" value="研发自测" style="rounded=1;whiteSpace=wrap;html=1;" vertex="1" parent="1">
          <mxGeometry x="647.5" y="370" width="105" height="40" as="geometry" />
        </mxCell>
        <mxCell id="Rcv9ff5-Xtqw_4qlxiXb-44" value="测试验证" style="rounded=1;whiteSpace=wrap;html=1;" vertex="1" parent="1">
          <mxGeometry x="647.5" y="430" width="105" height="40" as="geometry" />
        </mxCell>
        <mxCell id="Rcv9ff5-Xtqw_4qlxiXb-45" value="qlExpress&lt;div&gt;规则引擎&lt;/div&gt;" style="rounded=1;whiteSpace=wrap;html=1;" vertex="1" parent="1">
          <mxGeometry x="647.5" y="490" width="105" height="40" as="geometry" />
        </mxCell>
        <mxCell id="Rcv9ff5-Xtqw_4qlxiXb-46" value="redis缓存" style="rounded=1;whiteSpace=wrap;html=1;" vertex="1" parent="1">
          <mxGeometry x="200" y="620" width="100" height="40" as="geometry" />
        </mxCell>
        <mxCell id="Rcv9ff5-Xtqw_4qlxiXb-47" value="缓存" style="text;html=1;align=center;verticalAlign=middle;whiteSpace=wrap;rounded=0;" vertex="1" parent="1">
          <mxGeometry x="160" y="590" width="60" height="30" as="geometry" />
        </mxCell>
        <mxCell id="Rcv9ff5-Xtqw_4qlxiXb-48" value="Cache缓存" style="rounded=1;whiteSpace=wrap;html=1;" vertex="1" parent="1">
          <mxGeometry x="320" y="620" width="100" height="40" as="geometry" />
        </mxCell>
        <mxCell id="Rcv9ff5-Xtqw_4qlxiXb-50" value="" style="rounded=0;whiteSpace=wrap;html=1;fillColor=#a0522d;fontColor=#ffffff;strokeColor=#6D1F00;" vertex="1" parent="1">
          <mxGeometry x="490" y="590" width="290" height="80" as="geometry" />
        </mxCell>
        <mxCell id="Rcv9ff5-Xtqw_4qlxiXb-51" value="Mysql数据库" style="rounded=1;whiteSpace=wrap;html=1;" vertex="1" parent="1">
          <mxGeometry x="530" y="620" width="100" height="40" as="geometry" />
        </mxCell>
        <mxCell id="Rcv9ff5-Xtqw_4qlxiXb-52" value="持久层" style="text;html=1;align=center;verticalAlign=middle;whiteSpace=wrap;rounded=0;" vertex="1" parent="1">
          <mxGeometry x="490" y="590" width="60" height="30" as="geometry" />
        </mxCell>
        <mxCell id="Rcv9ff5-Xtqw_4qlxiXb-53" value="Doris数据库" style="rounded=1;whiteSpace=wrap;html=1;" vertex="1" parent="1">
          <mxGeometry x="650" y="620" width="100" height="40" as="geometry" />
        </mxCell>
        <mxCell id="Rcv9ff5-Xtqw_4qlxiXb-54" value="星河云平台" style="rounded=0;whiteSpace=wrap;html=1;fillColor=#6d8764;fontColor=#ffffff;strokeColor=#3A5431;" vertex="1" parent="1">
          <mxGeometry x="160" y="700" width="620" height="60" as="geometry" />
        </mxCell>
        <mxCell id="Rcv9ff5-Xtqw_4qlxiXb-55" value="云端" style="text;html=1;align=center;verticalAlign=middle;whiteSpace=wrap;rounded=0;fontSize=30;" vertex="1" parent="1">
          <mxGeometry x="50" y="480" width="80" height="30" as="geometry" />
        </mxCell>
        <mxCell id="Rcv9ff5-Xtqw_4qlxiXb-65" value="" style="endArrow=classic;html=1;rounded=0;" edge="1" parent="1">
          <mxGeometry width="50" height="50" relative="1" as="geometry">
            <mxPoint x="310" y="200" as="sourcePoint" />
            <mxPoint x="310" y="220" as="targetPoint" />
          </mxGeometry>
        </mxCell>
        <mxCell id="Rcv9ff5-Xtqw_4qlxiXb-67" value="" style="endArrow=classic;html=1;rounded=0;" edge="1" parent="1">
          <mxGeometry width="50" height="50" relative="1" as="geometry">
            <mxPoint x="620" y="200" as="sourcePoint" />
            <mxPoint x="620" y="220" as="targetPoint" />
          </mxGeometry>
        </mxCell>
        <mxCell id="Rcv9ff5-Xtqw_4qlxiXb-70" value="" style="endArrow=classic;html=1;rounded=0;" edge="1" parent="1">
          <mxGeometry width="50" height="50" relative="1" as="geometry">
            <mxPoint x="230" y="290" as="sourcePoint" />
            <mxPoint x="230" y="330" as="targetPoint" />
          </mxGeometry>
        </mxCell>
        <mxCell id="Rcv9ff5-Xtqw_4qlxiXb-72" value="" style="endArrow=classic;html=1;rounded=0;exitX=0.5;exitY=1;exitDx=0;exitDy=0;" edge="1" parent="1" source="Rcv9ff5-Xtqw_4qlxiXb-21">
          <mxGeometry width="50" height="50" relative="1" as="geometry">
            <mxPoint x="240" y="300" as="sourcePoint" />
            <mxPoint x="470" y="328" as="targetPoint" />
            <Array as="points">
              <mxPoint x="470" y="310" />
            </Array>
          </mxGeometry>
        </mxCell>
        <mxCell id="Rcv9ff5-Xtqw_4qlxiXb-73" value="" style="endArrow=classic;html=1;rounded=0;exitX=0.5;exitY=1;exitDx=0;exitDy=0;" edge="1" parent="1">
          <mxGeometry width="50" height="50" relative="1" as="geometry">
            <mxPoint x="700" y="290" as="sourcePoint" />
            <mxPoint x="700" y="328" as="targetPoint" />
            <Array as="points">
              <mxPoint x="700" y="310" />
            </Array>
          </mxGeometry>
        </mxCell>
      </root>
    </mxGraphModel>
  </diagram>
</mxfile>
